<svg width="20" height="21" viewBox="0 0 20 21" fill="none" xmlns="http://www.w3.org/2000/svg"><path d="M8.808.04C3.95.04 0 3.99 0 8.846s3.951 8.807 8.808 8.807c4.856 0 8.807-3.95 8.807-8.807 0-4.856-3.95-8.808-8.807-8.808zm0 15.989c-3.96 0-7.182-3.222-7.182-7.182 0-3.96 3.222-7.182 7.182-7.182 3.96 0 7.181 3.222 7.181 7.182 0 3.96-3.222 7.182-7.181 7.182z" fill="#AEAEAE"/><path d="M19.762 18.651l-4.662-4.66a.813.813 0 10-1.15 1.149l4.662 4.661a.81.81 0 001.15 0 .813.813 0 000-1.15z" fill="#AEAEAE"/></svg>